# Blender 4.1.1
# www.blender.org
mtllib Particle.mtl
o Cube
v 1.000000 1.000000 -1.000000
v 1.312357 -1.284858 -0.998512
v 1.000000 1.000000 1.000000
v 1.000000 -1.000000 1.000000
v -1.000000 1.000000 -1.000000
v -0.852358 -1.231203 -1.172415
v -1.000000 1.000000 1.000000
v -0.857949 -1.212575 1.074184
v -0.521265 -0.625365 2.021173
v -1.008189 0.664928 1.675892
v 1.016234 0.062111 1.761045
v 1.097248 -0.771385 1.555314
v 1.794849 1.014946 -0.380355
v 1.830254 -0.512844 -0.490353
v 1.735656 1.000163 0.487458
v 2.125589 -0.445121 0.491541
v 0.330334 1.465726 0.688359
v -0.705951 1.918321 0.481852
v 0.532771 1.689945 -0.904721
v -0.895432 1.850397 -0.545290
v -0.706602 -1.995402 -0.492213
v -0.721905 -2.178820 1.226826
v 0.668836 -1.745396 -0.361132
v 0.640506 -1.631127 0.443805
v -2.071710 -0.436759 -1.013003
v -1.523829 -0.359978 1.176732
v -2.191480 0.567423 0.144244
v -1.806850 0.463986 -1.222041
v 1.000000 -1.000000 -1.654510
v -1.000000 -1.000000 -2.023844
v 0.464732 0.730573 -1.237115
v -1.258107 0.832276 -1.740543
vn -0.0000 0.1368 -0.9906
vn -0.9969 -0.0655 -0.0445
vn 0.2096 0.0462 0.9767
vn 0.1867 -0.6331 -0.7512
vn 0.5648 0.1547 0.8106
vn 0.0096 -0.9155 -0.4021
vn 0.2531 -0.2086 0.9447
vn 0.1183 -0.8622 0.4926
vn 0.1537 0.6242 0.7660
vn 0.9615 0.1503 -0.2302
vn 0.9559 0.0431 -0.2905
vn 0.6299 0.0856 -0.7720
vn 0.4181 -0.9062 -0.0633
vn -0.0304 0.9994 0.0149
vn 0.3646 0.9146 0.1750
vn 0.0362 0.4823 0.8753
vn -0.9925 0.1220 -0.0000
vn 0.5710 0.8210 -0.0000
vn 0.3224 -0.9416 -0.0976
vn 0.1076 -0.6911 0.7147
vn -0.9894 -0.1431 -0.0241
vn 0.6582 -0.7418 0.1285
vn -0.8942 -0.3798 0.2370
vn -0.5454 -0.8382 0.0056
vn -0.3413 0.9400 -0.0000
vn 0.2088 0.0891 -0.9739
vn 0.1743 0.2815 -0.9436
vn 0.1332 0.9556 -0.2629
vn 0.2557 0.3007 -0.9188
vn -0.9793 -0.1576 0.1270
vn -0.1628 0.4807 -0.8616
vn -0.8723 -0.2112 0.4411
vn -0.6268 0.3330 0.7044
vn 0.0253 -0.8222 -0.5686
vn 0.4117 -0.0000 0.9113
vn 0.0498 -0.9616 -0.2698
vn 0.0407 0.2726 0.9613
vn 0.0249 -0.9259 0.3768
vn -0.0000 0.8959 0.4442
vn 0.9998 -0.0000 -0.0213
vn 0.9631 0.2600 0.0701
vn 0.6124 0.0709 -0.7873
vn 0.7441 -0.6353 0.2068
vn -0.0002 1.0000 -0.0000
vn 0.0908 0.9925 -0.0824
vn -0.0000 0.5561 0.8311
vn -0.9159 0.3746 0.1442
vn 0.8258 0.5344 0.1802
vn 0.1636 -0.9759 0.1443
vn 0.4268 0.1994 0.8821
vn -0.9821 -0.1881 -0.0009
vn 0.7607 -0.6154 0.2066
vn -0.9367 0.2105 -0.2796
vn -0.7578 -0.6173 0.2113
vn -0.5019 0.8403 -0.2049
vn -0.2274 -0.1562 -0.9612
vn 0.2857 0.1856 -0.9402
vn -0.0000 0.6607 -0.7507
vn 0.9158 0.1249 -0.3818
vn -0.9342 -0.0885 0.3456
vt 0.882295 0.386129
vt 0.958741 0.544283
vt 0.882295 0.594228
vt 0.993597 0.881475
vt 0.921290 0.730901
vt 0.993597 0.711234
vt 0.754848 0.006403
vt 0.821199 0.151802
vt 0.754848 0.241371
vt 0.006403 0.373373
vt 0.083134 0.300166
vt 0.063861 0.427420
vt 0.378302 0.734169
vt 0.258363 0.867062
vt 0.301166 0.715991
vt 0.040940 0.660344
vt 0.078336 0.798725
vt 0.006403 0.844713
vt 0.524338 0.252764
vt 0.696726 0.324480
vt 0.522636 0.333750
vt 0.753828 0.532129
vt 0.869489 0.644130
vt 0.753828 0.698428
vt 0.522636 0.129420
vt 0.742041 0.175200
vt 0.859611 0.465881
vt 0.818877 0.516801
vt 0.138567 0.006403
vt 0.202185 0.099403
vt 0.094825 0.114259
vt 0.259130 0.111573
vt 0.425420 0.018271
vt 0.509830 0.096383
vt 0.245556 0.237997
vt 0.741021 0.449079
vt 0.562444 0.419735
vt 0.651897 0.386129
vt 0.737871 0.485707
vt 0.626522 0.652171
vt 0.578477 0.561242
vt 0.741770 0.117926
vt 0.593974 0.066549
vt 0.705093 0.006403
vt 0.905363 0.006403
vt 0.957422 0.167997
vt 0.905363 0.225237
vt 0.530443 0.511726
vt 0.172389 0.305444
vt 0.245556 0.466463
vt 0.498429 0.921274
vt 0.454441 0.766101
vt 0.496383 0.715991
vt 0.269739 0.622945
vt 0.445072 0.694703
vt 0.258363 0.703185
vt 0.023913 0.205491
vt 0.370674 0.386129
vt 0.502988 0.470303
vt 0.258363 0.506174
vt 0.515593 0.629160
vt 0.585361 0.665147
vt 0.687772 0.820715
vt 0.530443 0.877872
vt 0.871035 0.956832
vt 0.777197 0.764663
vt 0.871035 0.711234
vt 0.464099 0.370947
vt 0.284716 0.177629
vt 0.485428 0.150895
vt 0.146254 0.685045
vt 0.215848 0.547942
vt 0.215848 0.738368
vt 0.090587 0.479270
vt 0.133448 0.632077
vt 0.983562 0.407105
vt 0.883841 0.862081
vt 0.892556 0.017070
vt 0.378302 0.944150
vt 0.798798 0.386129
vt 0.231917 0.024539
vt 0.258363 0.006403
vt 0.741021 0.640991
vt 0.946456 0.053777
vt 0.391108 0.921274
vt 0.517637 0.428285
vt 0.687772 0.664978
vt 0.753828 0.855633
vt 0.258363 0.373323
vt 0.208206 0.479269
vt 0.006403 0.488296
s 0
usemtl Material
f 5/1/1 19/2/1 1/3/1
f 8/4/2 10/5/2 7/6/2
f 7/7/3 26/8/3 8/9/3
f 6/10/4 23/11/4 21/12/4
f 3/13/5 16/14/5 15/15/5
f 6/16/6 29/17/6 2/18/6
f 11/19/7 9/20/7 12/21/7
f 4/22/8 9/23/8 8/24/8
f 3/25/9 10/26/9 11/19/9
f 4/22/10 11/27/10 12/28/10
f 13/29/11 16/30/11 14/31/11
f 1/32/12 14/33/12 2/34/12
f 4/35/13 14/31/13 16/30/13
f 1/36/14 15/37/14 13/38/14
f 19/39/15 18/40/15 17/41/15
f 7/42/16 17/43/16 18/44/16
f 7/45/17 20/46/17 5/47/17
f 1/36/18 17/41/18 3/48/18
f 21/12/19 24/49/19 22/50/19
f 8/51/20 24/52/20 4/53/20
f 8/54/21 21/55/21 22/56/21
f 2/57/22 24/49/22 23/11/22
f 27/58/23 25/59/23 26/60/23
f 8/54/24 25/59/24 6/61/24
f 5/62/25 27/63/25 7/64/25
f 6/65/26 28/66/26 5/67/26
f 30/68/27 31/69/27 29/70/27
f 5/71/28 31/72/28 32/73/28
f 1/32/29 29/70/29 31/69/29
f 6/16/30 32/74/30 30/75/30
f 5/1/31 20/76/31 19/2/31
f 8/4/32 9/77/32 10/5/32
f 7/7/33 27/78/33 26/8/33
f 6/10/34 2/57/34 23/11/34
f 3/13/35 4/79/35 16/14/35
f 6/16/36 30/75/36 29/17/36
f 11/19/37 10/26/37 9/20/37
f 4/22/38 12/28/38 9/23/38
f 3/25/39 7/42/39 10/26/39
f 4/22/40 3/80/40 11/27/40
f 13/29/41 15/81/41 16/30/41
f 1/32/42 13/82/42 14/33/42
f 4/35/43 2/57/43 14/31/43
f 1/36/44 3/48/44 15/37/44
f 19/39/45 20/83/45 18/40/45
f 7/42/46 3/25/46 17/43/46
f 7/45/47 18/84/47 20/46/47
f 1/36/48 19/39/48 17/41/48
f 21/12/49 23/11/49 24/49/49
f 8/51/50 22/85/50 24/52/50
f 8/54/51 6/61/51 21/55/51
f 2/57/52 4/35/52 24/49/52
f 27/58/53 28/86/53 25/59/53
f 8/54/54 26/60/54 25/59/54
f 5/62/55 28/87/55 27/63/55
f 6/65/56 25/88/56 28/66/56
f 30/68/57 32/89/57 31/69/57
f 5/71/58 1/90/58 31/72/58
f 1/32/59 2/34/59 29/70/59
f 6/16/60 5/91/60 32/74/60
